<?xml version="1.0" standalone="no"?>
<!DOCTYPE svg PUBLIC "-//W3C//DTD SVG 20010904//EN"
 "http://www.w3.org/TR/2001/REC-SVG-20010904/DTD/svg10.dtd">
<svg version="1.0" xmlns="http://www.w3.org/2000/svg"
 width="260.000000pt" height="260.000000pt" viewBox="0 0 260.000000 260.000000"
 preserveAspectRatio="xMidYMid meet">
<metadata>
Created by potrace 1.14, written by Peter Selinger 2001-2017
</metadata>
<g transform="translate(0.000000,260.000000) scale(0.100000,-0.100000)"
fill="#000000" stroke="none">
<path d="M381 2570 c-166 -78 -302 -219 -361 -376 -20 -53 -20 -75 -20 -894 0
-956 -7 -878 90 -1023 78 -116 195 -211 317 -257 54 -20 69 -20 906 -18 l852
3 77 38 c140 68 254 184 321 324 l32 68 0 865 0 865 -37 75 c-69 142 -173 246
-317 318 l-75 37 -860 2 -861 2 -64 -29z"/>
</g>
</svg>
