<?xml version="1.0" standalone="no"?>
<!DOCTYPE svg PUBLIC "-//W3C//DTD SVG 20010904//EN"
 "http://www.w3.org/TR/2001/REC-SVG-20010904/DTD/svg10.dtd">
<svg version="1.0" xmlns="http://www.w3.org/2000/svg"
 width="260.000000pt" height="260.000000pt" viewBox="0 0 260.000000 260.000000"
 preserveAspectRatio="xMidYMid meet">
<metadata>
Created by potrace 1.14, written by Peter Selinger 2001-2017
</metadata>
<g transform="translate(0.000000,260.000000) scale(0.100000,-0.100000)"
fill="#000000" stroke="none">
<path d="M0 1300 l0 -1300 1300 0 1300 0 0 1300 0 1300 -1300 0 -1300 0 0
-1300z m1212 18 l283 -713 -149 -3 c-82 -1 -151 -1 -153 2 -2 2 -31 73 -63
158 l-58 153 -294 3 -293 2 -59 -160 -58 -160 -155 0 c-85 0 -152 4 -149 9 4
6 523 1334 549 1404 6 15 23 17 161 17 l154 0 284 -712z m1027 317 c66 -17
145 -68 170 -108 38 -63 43 -106 50 -447 8 -350 7 -343 56 -462 7 -17 -3 -18
-129 -18 l-135 0 -16 55 c-9 30 -18 55 -21 55 -2 0 -25 -16 -51 -36 -195 -149
-473 -110 -570 80 -22 42 -27 65 -27 132 0 68 4 89 28 137 51 104 110 136 366
194 85 19 170 41 188 49 29 12 32 17 32 54 0 90 -50 130 -163 130 -77 0 -120
-24 -151 -85 l-21 -41 -122 19 -121 19 14 41 c52 146 152 225 314 248 72 10
244 1 309 -16z"/>
<path d="M768 1688 c-84 -221 -189 -520 -186 -524 3 -2 93 -3 201 -2 l195 3
-99 264 c-55 146 -101 266 -103 268 -2 2 -6 -2 -8 -9z"/>
<path d="M2110 1083 c-181 -49 -219 -63 -244 -94 -48 -57 -27 -158 41 -200 77
-48 204 -2 251 91 18 36 22 61 22 132 0 48 -3 88 -7 87 -5 0 -33 -7 -63 -16z"/>
</g>
</svg>
